# xmcd
#
# Track frame offsets:
#   182
#   17512
#   31777
#   46155
#   59380
#   74192
#   88332
#   102495
#   112937
#   130935
#   143500
#   159380
#   169637
#   184800
#   197292
#   211665
#   224767
#   233710
#   254280
#   267825
#   285475
#   295795
#
# Disc length: 4085 seconds
#
# Revision: 0
# Processed by: cddbd v1.5PL3 Copyright (c) Steve Scherf et al.
# Submitted via: uFREEDB 1.6.0
#
DISCID=3b0ff316
DTITLE=Foster and Allen - Songs We Love To Sing
DYEAR=1900
DGENRE=Folk
TTITLE0=Every Thing Is Beautiful
TTITLE1=Dont Let The Stars Get In Your Eyes
TTITLE2=Still
TTITLE3=Mursheen Durkin
TTITLE4=Love Me Tender
TTITLE5=Do What You Do Do Well
TTITLE6=Take These Chains From My Heart
TTITLE7=A Picture Of You
TTITLE8=An Irish Day
TTITLE9=The Warbash Cannonball
TTITLE10=Jealous Heart
TTITLE11=Hello Mary Lou
TTITLE12=Oh Dearest one
TTITLE13=Shuffling Samuel
TTITLE14=Have I Told You Lately That I Love You
TTITLE15=Johnny Will
TTITLE16=Rare Old Moutain Due
TTITLE17=Pip Pip
TTITLE18=Carolina Star
TTITLE19=The Gypsy Rover
TTITLE20=Jigs: The Knights Of St Patrick and The Irish Washer
TTITLE21=The Holy Ground
EXTD=
EXTT0=
EXTT1=
EXTT2=
EXTT3=
EXTT4=
EXTT5=
EXTT6=
EXTT7=
EXTT8=
EXTT9=
EXTT10=
EXTT11=
EXTT12=
EXTT13=
EXTT14=
EXTT15=
EXTT16=
EXTT17=
EXTT18=
EXTT19=
EXTT20=
EXTT21=
PLAYORDER=
